<svg height='100px' width='100px'  fill="#00689e" xmlns="http://www.w3.org/2000/svg" xmlns:xlink="http://www.w3.org/1999/xlink" viewBox="0 0 56 53" version="1.1" x="0px" y="0px"><title>Leisure - Solid - 019 - Dice</title><desc>Created with Sketch.</desc><g stroke="none" stroke-width="1" fill="none" fill-rule="evenodd"><g fill-rule="nonzero" fill="#00689e"><path d="M35,20.54 C34.59009,20.54 34,21.32 34,22.54 C34,23.77 34.59009,24.54 35,24.54 C35.40991,24.54 36,23.77 36,22.54 C36,21.32 35.40991,20.54 35,20.54 Z M35,20.54 C34.59009,20.54 34,21.32 34,22.54 C34,23.77 34.59009,24.54 35,24.54 C35.40991,24.54 36,23.77 36,22.54 C36,21.32 35.40991,20.54 35,20.54 Z M44,15 C42.78,15 42,15.59 42,16 C42,16.41 42.78,17 44,17 C45.22,17 46,16.41 46,16 C46,15.59 45.22,15 44,15 Z M44,15 C42.78,15 42,15.59 42,16 C42,16.41 42.78,17 44,17 C45.22,17 46,16.41 46,16 C46,15.59 45.22,15 44,15 Z M35,20.54 C34.59009,20.54 34,21.32 34,22.54 C34,23.77 34.59009,24.54 35,24.54 C35.40991,24.54 36,23.77 36,22.54 C36,21.32 35.40991,20.54 35,20.54 Z M44,15 C42.78,15 42,15.59 42,16 C42,16.41 42.78,17 44,17 C45.22,17 46,16.41 46,16 C46,15.59 45.22,15 44,15 Z M35,20.54 C34.59009,20.54 34,21.32 34,22.54 C34,23.77 34.59009,24.54 35,24.54 C35.40991,24.54 36,23.77 36,22.54 C36,21.32 35.40991,20.54 35,20.54 Z M46,16 C46,15.59 45.22,15 44,15 C42.78,15 42,15.59 42,16 C42,16.41 42.78,17 44,17 C45.22,17 46,16.41 46,16 Z M35,20.54 C34.59009,20.54 34,21.32 34,22.54 C34,23.77 34.59009,24.54 35,24.54 C35.40991,24.54 36,23.77 36,22.54 C36,21.32 35.40991,20.54 35,20.54 Z M42,23.16 L55.2,15.62 C55.1343708,15.5611615 55.0641476,15.5076581 54.99,15.46 L36.99,5.17 C36.3790909,4.81 35.6209091,4.81 35.01,5.17 L34.31,5.57 L39.98,8.81 C40.6632557,9.2020204 41.2162052,9.78623585 41.57009,10.49 C41.57009,10.5 41.57009,10.5 41.58009,10.51 C41.5787246,10.5209967 41.5823997,10.5320218 41.59009,10.54 C41.8570528,11.0849201 41.9971918,11.6832058 42,12.29 L42,13.4 C42.6328988,13.1332498 43.3131895,12.9971917 44,13 C46.24,13 48,14.32 48,16 C48,17.68 46.24,19 44,19 C43.3131896,19.0028081 42.6328989,18.8667499 42,18.6 L42,23.16 Z M35,20.54 C34.59009,20.54 34,21.32 34,22.54 C34,23.77 34.59009,24.54 35,24.54 C35.40991,24.54 36,23.77 36,22.54 C36,21.32 35.40991,20.54 35,20.54 Z M44,15 C42.78,15 42,15.59 42,16 C42,16.41 42.78,17 44,17 C45.22,17 46,16.41 46,16 C46,15.59 45.22,15 44,15 Z M35,20.54 C34.59009,20.54 34,21.32 34,22.54 C34,23.77 34.59009,24.54 35,24.54 C35.40991,24.54 36,23.77 36,22.54 C36,21.32 35.40991,20.54 35,20.54 Z M44,15 C42.78,15 42,15.59 42,16 C42,16.41 42.78,17 44,17 C45.22,17 46,16.41 46,16 C46,15.59 45.22,15 44,15 Z M35,20.54 C34.59009,20.54 34,21.32 34,22.54 C34,23.77 34.59009,24.54 35,24.54 C35.40991,24.54 36,23.77 36,22.54 C36,21.32 35.40991,20.54 35,20.54 Z M44,15 C42.78,15 42,15.59 42,16 C42,16.41 42.78,17 44,17 C45.22,17 46,16.41 46,16 C46,15.59 45.22,15 44,15 Z M35,20.54 C34.59009,20.54 34,21.32 34,22.54 C34,23.77 34.59009,24.54 35,24.54 C35.40991,24.54 36,23.77 36,22.54 C36,21.32 35.40991,20.54 35,20.54 Z M44,15 C42.78,15 42,15.59 42,16 C42,16.41 42.78,17 44,17 C45.22,17 46,16.41 46,16 C46,15.59 45.22,15 44,15 Z M44,15 C42.78,15 42,15.59 42,16 C42,16.41 42.78,17 44,17 C45.22,17 46,16.41 46,16 C46,15.59 45.22,15 44,15 Z M20,9.54 C18.78,9.54 18,10.14 18,10.54 C18,10.95 18.78,11.54 20,11.54 C21.22,11.54 22,10.95 22,10.54 C22,10.14 21.22,9.54 20,9.54 Z M20,9.54 C18.78,9.54 18,10.14 18,10.54 C18,10.95 18.78,11.54 20,11.54 C21.22,11.54 22,10.95 22,10.54 C22,10.14 21.22,9.54 20,9.54 Z M20,9.54 C18.78,9.54 18,10.14 18,10.54 C18,10.95 18.78,11.54 20,11.54 C21.22,11.54 22,10.95 22,10.54 C22,10.14 21.22,9.54 20,9.54 Z M20,9.54 C18.78,9.54 18,10.14 18,10.54 C18,10.95 18.78,11.54 20,11.54 C21.22,11.54 22,10.95 22,10.54 C22,10.14 21.22,9.54 20,9.54 Z M20,9.54 C18.78,9.54 18,10.14 18,10.54 C18,10.95 18.78,11.54 20,11.54 C21.22,11.54 22,10.95 22,10.54 C22,10.14 21.22,9.54 20,9.54 Z M20,9.54 C18.78,9.54 18,10.14 18,10.54 C18,10.95 18.78,11.54 20,11.54 C21.22,11.54 22,10.95 22,10.54 C22,10.14 21.22,9.54 20,9.54 Z M20,9.54 C18.78,9.54 18,10.14 18,10.54 C18,10.95 18.78,11.54 20,11.54 C21.22,11.54 22,10.95 22,10.54 C22,10.14 21.22,9.54 20,9.54 Z M38.99,10.55 L20.99,0.26 C20.3755275,-0.086687943 19.6244725,-0.086687943 19.01,0.26 L1.01,10.55 C0.92992,10.59 0.87,10.66 0.79,10.71 L18.98,21.1 C19.6250107,21.4418625 20.3983387,21.4381084 21.04,21.09 L39.21,10.71 C39.13,10.66 39.07007,10.59 38.99,10.55 L38.99,10.55 Z M20,13.54 C17.76,13.54 16,12.23 16,10.54 C16,8.86 17.76,7.54 20,7.54 C22.24,7.54 24,8.86 24,10.54 C24,12.23 22.24,13.54 20,13.54 Z M20,9.54 C18.78,9.54 18,10.14 18,10.54 C18,10.95 18.78,11.54 20,11.54 C21.22,11.54 22,10.95 22,10.54 C22,10.14 21.22,9.54 20,9.54 Z M20,9.54 C18.78,9.54 18,10.14 18,10.54 C18,10.95 18.78,11.54 20,11.54 C21.22,11.54 22,10.95 22,10.54 C22,10.14 21.22,9.54 20,9.54 Z M20,9.54 C18.78,9.54 18,10.14 18,10.54 C18,10.95 18.78,11.54 20,11.54 C21.22,11.54 22,10.95 22,10.54 C22,10.14 21.22,9.54 20,9.54 Z M20,9.54 C18.78,9.54 18,10.14 18,10.54 C18,10.95 18.78,11.54 20,11.54 C21.22,11.54 22,10.95 22,10.54 C22,10.14 21.22,9.54 20,9.54 Z M20,9.54 C18.78,9.54 18,10.14 18,10.54 C18,10.95 18.78,11.54 20,11.54 C21.22,11.54 22,10.95 22,10.54 C22,10.14 21.22,9.54 20,9.54 Z M20,9.54 C18.78,9.54 18,10.14 18,10.54 C18,10.95 18.78,11.54 20,11.54 C21.22,11.54 22,10.95 22,10.54 C22,10.14 21.22,9.54 20,9.54 Z M35,20.54 C34.59009,20.54 34,21.32 34,22.54 C34,23.77 34.59009,24.54 35,24.54 C35.40991,24.54 36,23.77 36,22.54 C36,21.32 35.40991,20.54 35,20.54 Z M5,19.54 C4.59009,19.54 4,20.32 4,21.54 C4,22.77 4.59009,23.54 5,23.54 C5.40991,23.54 6,22.77 6,21.54 C6,20.32 5.40991,19.54 5,19.54 Z M5,19.54 C4.59009,19.54 4,20.32 4,21.54 C4,22.77 4.59009,23.54 5,23.54 C5.40991,23.54 6,22.77 6,21.54 C6,20.32 5.40991,19.54 5,19.54 Z M5,30.54 C4.59009,30.54 4,31.32 4,32.54 C4,33.77 4.59009,34.54 5,34.54 C5.40991,34.54 6,33.77 6,32.54 C6,31.32 5.40991,30.54 5,30.54 Z M14,25.54 C13.59009,25.54 13,26.32 13,27.54 C13,28.77 13.59009,29.54 14,29.54 C14.40991,29.54 15,28.77 15,27.54 C15,26.32 14.40991,25.54 14,25.54 Z M5,19.54 C4.59009,19.54 4,20.32 4,21.54 C4,22.77 4.59009,23.54 5,23.54 C5.40991,23.54 6,22.77 6,21.54 C6,20.32 5.40991,19.54 5,19.54 Z M5,30.54 C4.59009,30.54 4,31.32 4,32.54 C4,33.77 4.59009,34.54 5,34.54 C5.40991,34.54 6,33.77 6,32.54 C6,31.32 5.40991,30.54 5,30.54 Z M14,25.54 C13.59009,25.54 13,26.32 13,27.54 C13,28.77 13.59009,29.54 14,29.54 C14.40991,29.54 15,28.77 15,27.54 C15,26.32 14.40991,25.54 14,25.54 Z M14,36.54 C13.59009,36.54 13,37.32 13,38.54 C13,39.77 13.59009,40.54 14,40.54 C14.40991,40.54 15,39.77 15,38.54 C15,37.32 14.40991,36.54 14,36.54 Z M5,19.54 C4.59009,19.54 4,20.32 4,21.54 C4,22.77 4.59009,23.54 5,23.54 C5.40991,23.54 6,22.77 6,21.54 C6,20.32 5.40991,19.54 5,19.54 Z M5,30.54 C4.59009,30.54 4,31.32 4,32.54 C4,33.77 4.59009,34.54 5,34.54 C5.40991,34.54 6,33.77 6,32.54 C6,31.32 5.40991,30.54 5,30.54 Z M18,22.84 L0,12.56 L0,35.8 C8.29240661e-05,36.5192064 0.385521891,37.1832299 1.01,37.54 L19,47.82 L19,23.24 C18.6499662,23.1529523 18.3135056,23.018368 18,22.84 Z M5,36.54 C3.32007,36.54 2,34.79 2,32.54 C2,30.3 3.32007,28.54 5,28.54 C6.67993,28.54 8,30.3 8,32.54 C8,34.79 6.67993,36.54 5,36.54 Z M5,25.54 C3.32007,25.54 2,23.79 2,21.54 C2,19.3 3.32007,17.54 5,17.54 C6.67993,17.54 8,19.3 8,21.54 C8,23.79 6.67993,25.54 5,25.54 Z M14,42.54 C12.32007,42.54 11,40.79 11,38.54 C11,36.3 12.32007,34.54 14,34.54 C15.67993,34.54 17,36.3 17,38.54 C17,40.79 15.67993,42.54 14,42.54 Z M14,31.54 C12.32007,31.54 11,29.79 11,27.54 C11,25.3 12.32007,23.54 14,23.54 C15.67993,23.54 17,25.3 17,27.54 C17,29.79 15.67993,31.54 14,31.54 Z M5,19.54 C4.59009,19.54 4,20.32 4,21.54 C4,22.77 4.59009,23.54 5,23.54 C5.40991,23.54 6,22.77 6,21.54 C6,20.32 5.40991,19.54 5,19.54 Z M5,30.54 C4.59009,30.54 4,31.32 4,32.54 C4,33.77 4.59009,34.54 5,34.54 C5.40991,34.54 6,33.77 6,32.54 C6,31.32 5.40991,30.54 5,30.54 Z M14,25.54 C13.59009,25.54 13,26.32 13,27.54 C13,28.77 13.59009,29.54 14,29.54 C14.40991,29.54 15,28.77 15,27.54 C15,26.32 14.40991,25.54 14,25.54 Z M5,30.54 C4.59009,30.54 4,31.32 4,32.54 C4,33.77 4.59009,34.54 5,34.54 C5.40991,34.54 6,33.77 6,32.54 C6,31.32 5.40991,30.54 5,30.54 Z M5,19.54 C4.59009,19.54 4,20.32 4,21.54 C4,22.77 4.59009,23.54 5,23.54 C5.40991,23.54 6,22.77 6,21.54 C6,20.32 5.40991,19.54 5,19.54 Z M5,19.54 C4.59009,19.54 4,20.32 4,21.54 C4,22.77 4.59009,23.54 5,23.54 C5.40991,23.54 6,22.77 6,21.54 C6,20.32 5.40991,19.54 5,19.54 Z M14,25.54 C13.59009,25.54 13,26.32 13,27.54 C13,28.77 13.59009,29.54 14,29.54 C14.40991,29.54 15,28.77 15,27.54 C15,26.32 14.40991,25.54 14,25.54 Z M14,25.54 C13.59009,25.54 13,26.32 13,27.54 C13,28.77 13.59009,29.54 14,29.54 C14.40991,29.54 15,28.77 15,27.54 C15,26.32 14.40991,25.54 14,25.54 Z M35,20.54 C34.59009,20.54 34,21.32 34,22.54 C34,23.77 34.59009,24.54 35,24.54 C35.40991,24.54 36,23.77 36,22.54 C36,21.32 35.40991,20.54 35,20.54 Z M35,20.54 C34.59009,20.54 34,21.32 34,22.54 C34,23.77 34.59009,24.54 35,24.54 C35.40991,24.54 36,23.77 36,22.54 C36,21.32 35.40991,20.54 35,20.54 Z M26,35.54 C25.59009,35.54 25,36.32 25,37.54 C25,38.77 25.59009,39.54 26,39.54 C26.40991,39.54 27,38.77 27,37.54 C27,36.32 26.40991,35.54 26,35.54 Z M35,20.54 C34.59009,20.54 34,21.32 34,22.54 C34,23.77 34.59009,24.54 35,24.54 C35.40991,24.54 36,23.77 36,22.54 C36,21.32 35.40991,20.54 35,20.54 Z M26,35.54 C25.59009,35.54 25,36.32 25,37.54 C25,38.77 25.59009,39.54 26,39.54 C26.40991,39.54 27,38.77 27,37.54 C27,36.32 26.40991,35.54 26,35.54 Z M35,20.54 C34.59009,20.54 34,21.32 34,22.54 C34,23.77 34.59009,24.54 35,24.54 C35.40991,24.54 36,23.77 36,22.54 C36,21.32 35.40991,20.54 35,20.54 Z M26,35.54 C25.59009,35.54 25,36.32 25,37.54 C25,38.77 25.59009,39.54 26,39.54 C26.40991,39.54 27,38.77 27,37.54 C27,36.32 26.40991,35.54 26,35.54 Z M35,20.54 C34.59009,20.54 34,21.32 34,22.54 C34,23.77 34.59009,24.54 35,24.54 C35.40991,24.54 36,23.77 36,22.54 C36,21.32 35.40991,20.54 35,20.54 Z M26,35.54 C25.59009,35.54 25,36.32 25,37.54 C25,38.77 25.59009,39.54 26,39.54 C26.40991,39.54 27,38.77 27,37.54 C27,36.32 26.40991,35.54 26,35.54 Z M35,20.54 C34.59009,20.54 34,21.32 34,22.54 C34,23.77 34.59009,24.54 35,24.54 C35.40991,24.54 36,23.77 36,22.54 C36,21.32 35.40991,20.54 35,20.54 Z M26,35.54 C25.59009,35.54 25,36.32 25,37.54 C25,38.77 25.59009,39.54 26,39.54 C26.40991,39.54 27,38.77 27,37.54 C27,36.32 26.40991,35.54 26,35.54 Z M22.02,22.83 C21.6982707,23.0083372 21.3556522,23.1460564 21,23.24 L21,47.82 L38.99,37.54 C39.6144781,37.1832299 39.9999171,36.5192064 40,35.8 L40,12.56 L22.02,22.83 Z M26,41.54 C24.32007,41.54 23,39.79 23,37.54 C23,35.3 24.32007,33.54 26,33.54 C27.67993,33.54 29,35.3 29,37.54 C29,39.79 27.67993,41.54 26,41.54 Z M35,26.54 C33.32007,26.54 32,24.79 32,22.54 C32,20.3 33.32007,18.54 35,18.54 C36.67993,18.54 38,20.3 38,22.54 C38,24.79 36.67993,26.54 35,26.54 Z M26,35.54 C25.59009,35.54 25,36.32 25,37.54 C25,38.77 25.59009,39.54 26,39.54 C26.40991,39.54 27,38.77 27,37.54 C27,36.32 26.40991,35.54 26,35.54 Z M35,20.54 C34.59009,20.54 34,21.32 34,22.54 C34,23.77 34.59009,24.54 35,24.54 C35.40991,24.54 36,23.77 36,22.54 C36,21.32 35.40991,20.54 35,20.54 Z M26,35.54 C25.59009,35.54 25,36.32 25,37.54 C25,38.77 25.59009,39.54 26,39.54 C26.40991,39.54 27,38.77 27,37.54 C27,36.32 26.40991,35.54 26,35.54 Z M35,20.54 C34.59009,20.54 34,21.32 34,22.54 C34,23.77 34.59009,24.54 35,24.54 C35.40991,24.54 36,23.77 36,22.54 C36,21.32 35.40991,20.54 35,20.54 Z M26,35.54 C25.59009,35.54 25,36.32 25,37.54 C25,38.77 25.59009,39.54 26,39.54 C26.40991,39.54 27,38.77 27,37.54 C27,36.32 26.40991,35.54 26,35.54 Z M35,20.54 C34.59009,20.54 34,21.32 34,22.54 C34,23.77 34.59009,24.54 35,24.54 C35.40991,24.54 36,23.77 36,22.54 C36,21.32 35.40991,20.54 35,20.54 Z M26,35.54 C25.59009,35.54 25,36.32 25,37.54 C25,38.77 25.59009,39.54 26,39.54 C26.40991,39.54 27,38.77 27,37.54 C27,36.32 26.40991,35.54 26,35.54 Z M35,20.54 C34.59009,20.54 34,21.32 34,22.54 C34,23.77 34.59009,24.54 35,24.54 C35.40991,24.54 36,23.77 36,22.54 C36,21.32 35.40991,20.54 35,20.54 Z M35,20.54 C34.59009,20.54 34,21.32 34,22.54 C34,23.77 34.59009,24.54 35,24.54 C35.40991,24.54 36,23.77 36,22.54 C36,21.32 35.40991,20.54 35,20.54 Z M25.73,47.42 L35,52.73 L35,42.13 L25.73,47.42 Z M35,20.54 C34.59009,20.54 34,21.32 34,22.54 C34,23.77 34.59009,24.54 35,24.54 C35.40991,24.54 36,23.77 36,22.54 C36,21.32 35.40991,20.54 35,20.54 Z M35,20.54 C34.59009,20.54 34,21.32 34,22.54 C34,23.77 34.59009,24.54 35,24.54 C35.40991,24.54 36,23.77 36,22.54 C36,21.32 35.40991,20.54 35,20.54 Z M35,20.54 C34.59009,20.54 34,21.32 34,22.54 C34,23.77 34.59009,24.54 35,24.54 C35.40991,24.54 36,23.77 36,22.54 C36,21.32 35.40991,20.54 35,20.54 Z M26,35.54 C25.59009,35.54 25,36.32 25,37.54 C25,38.77 25.59009,39.54 26,39.54 C26.40991,39.54 27,38.77 27,37.54 C27,36.32 26.40991,35.54 26,35.54 Z M35,20.54 C34.59009,20.54 34,21.32 34,22.54 C34,23.77 34.59009,24.54 35,24.54 C35.40991,24.54 36,23.77 36,22.54 C36,21.32 35.40991,20.54 35,20.54 Z M26,35.54 C25.59009,35.54 25,36.32 25,37.54 C25,38.77 25.59009,39.54 26,39.54 C26.40991,39.54 27,38.77 27,37.54 C27,36.32 26.40991,35.54 26,35.54 Z M35,20.54 C34.59009,20.54 34,21.32 34,22.54 C34,23.77 34.59009,24.54 35,24.54 C35.40991,24.54 36,23.77 36,22.54 C36,21.32 35.40991,20.54 35,20.54 Z M26,35.54 C25.59009,35.54 25,36.32 25,37.54 C25,38.77 25.59009,39.54 26,39.54 C26.40991,39.54 27,38.77 27,37.54 C27,36.32 26.40991,35.54 26,35.54 Z M35,20.54 C34.59009,20.54 34,21.32 34,22.54 C34,23.77 34.59009,24.54 35,24.54 C35.40991,24.54 36,23.77 36,22.54 C36,21.32 35.40991,20.54 35,20.54 Z M26,35.54 C25.59009,35.54 25,36.32 25,37.54 C25,38.77 25.59009,39.54 26,39.54 C26.40991,39.54 27,38.77 27,37.54 C27,36.32 26.40991,35.54 26,35.54 Z M35,20.54 C34.59009,20.54 34,21.32 34,22.54 C34,23.77 34.59009,24.54 35,24.54 C35.40991,24.54 36,23.77 36,22.54 C36,21.32 35.40991,20.54 35,20.54 Z M26,35.54 C25.59009,35.54 25,36.32 25,37.54 C25,38.77 25.59009,39.54 26,39.54 C26.40991,39.54 27,38.77 27,37.54 C27,36.32 26.40991,35.54 26,35.54 Z M22.02,22.83 C21.6982707,23.0083372 21.3556522,23.1460564 21,23.24 L21,47.82 L38.99,37.54 C39.6144781,37.1832299 39.9999171,36.5192064 40,35.8 L40,12.56 L22.02,22.83 Z M26,41.54 C24.32007,41.54 23,39.79 23,37.54 C23,35.3 24.32007,33.54 26,33.54 C27.67993,33.54 29,35.3 29,37.54 C29,39.79 27.67993,41.54 26,41.54 Z M35,26.54 C33.32007,26.54 32,24.79 32,22.54 C32,20.3 33.32007,18.54 35,18.54 C36.67993,18.54 38,20.3 38,22.54 C38,24.79 36.67993,26.54 35,26.54 Z M26,35.54 C25.59009,35.54 25,36.32 25,37.54 C25,38.77 25.59009,39.54 26,39.54 C26.40991,39.54 27,38.77 27,37.54 C27,36.32 26.40991,35.54 26,35.54 Z M35,20.54 C34.59009,20.54 34,21.32 34,22.54 C34,23.77 34.59009,24.54 35,24.54 C35.40991,24.54 36,23.77 36,22.54 C36,21.32 35.40991,20.54 35,20.54 Z M26,35.54 C25.59009,35.54 25,36.32 25,37.54 C25,38.77 25.59009,39.54 26,39.54 C26.40991,39.54 27,38.77 27,37.54 C27,36.32 26.40991,35.54 26,35.54 Z M35,20.54 C34.59009,20.54 34,21.32 34,22.54 C34,23.77 34.59009,24.54 35,24.54 C35.40991,24.54 36,23.77 36,22.54 C36,21.32 35.40991,20.54 35,20.54 Z M26,35.54 C25.59009,35.54 25,36.32 25,37.54 C25,38.77 25.59009,39.54 26,39.54 C26.40991,39.54 27,38.77 27,37.54 C27,36.32 26.40991,35.54 26,35.54 Z M35,20.54 C34.59009,20.54 34,21.32 34,22.54 C34,23.77 34.59009,24.54 35,24.54 C35.40991,24.54 36,23.77 36,22.54 C36,21.32 35.40991,20.54 35,20.54 Z M26,35.54 C25.59009,35.54 25,36.32 25,37.54 C25,38.77 25.59009,39.54 26,39.54 C26.40991,39.54 27,38.77 27,37.54 C27,36.32 26.40991,35.54 26,35.54 Z M35,20.54 C34.59009,20.54 34,21.32 34,22.54 C34,23.77 34.59009,24.54 35,24.54 C35.40991,24.54 36,23.77 36,22.54 C36,21.32 35.40991,20.54 35,20.54 Z M35,20.54 C34.59009,20.54 34,21.32 34,22.54 C34,23.77 34.59009,24.54 35,24.54 C35.40991,24.54 36,23.77 36,22.54 C36,21.32 35.40991,20.54 35,20.54 Z M47,33 C46.59009,33 46,33.78 46,35 C46,36.22 46.59009,37 47,37 C47.40991,37 48,36.22 48,35 C48,33.78 47.40991,33 47,33 Z M35,20.54 C34.59009,20.54 34,21.32 34,22.54 C34,23.77 34.59009,24.54 35,24.54 C35.40991,24.54 36,23.77 36,22.54 C36,21.32 35.40991,20.54 35,20.54 Z M35,20.54 C34.59009,20.54 34,21.32 34,22.54 C34,23.77 34.59009,24.54 35,24.54 C35.40991,24.54 36,23.77 36,22.54 C36,21.32 35.40991,20.54 35,20.54 Z M26,35.54 C25.59009,35.54 25,36.32 25,37.54 C25,38.77 25.59009,39.54 26,39.54 C26.40991,39.54 27,38.77 27,37.54 C27,36.32 26.40991,35.54 26,35.54 Z M35,20.54 C34.59009,20.54 34,21.32 34,22.54 C34,23.77 34.59009,24.54 35,24.54 C35.40991,24.54 36,23.77 36,22.54 C36,21.32 35.40991,20.54 35,20.54 Z M26,35.54 C25.59009,35.54 25,36.32 25,37.54 C25,38.77 25.59009,39.54 26,39.54 C26.40991,39.54 27,38.77 27,37.54 C27,36.32 26.40991,35.54 26,35.54 Z M35,20.54 C34.59009,20.54 34,21.32 34,22.54 C34,23.77 34.59009,24.54 35,24.54 C35.40991,24.54 36,23.77 36,22.54 C36,21.32 35.40991,20.54 35,20.54 Z M26,35.54 C25.59009,35.54 25,36.32 25,37.54 C25,38.77 25.59009,39.54 26,39.54 C26.40991,39.54 27,38.77 27,37.54 C27,36.32 26.40991,35.54 26,35.54 Z M35,20.54 C34.59009,20.54 34,21.32 34,22.54 C34,23.77 34.59009,24.54 35,24.54 C35.40991,24.54 36,23.77 36,22.54 C36,21.32 35.40991,20.54 35,20.54 Z M26,35.54 C25.59009,35.54 25,36.32 25,37.54 C25,38.77 25.59009,39.54 26,39.54 C26.40991,39.54 27,38.77 27,37.54 C27,36.32 26.40991,35.54 26,35.54 Z M35,20.54 C34.59009,20.54 34,21.32 34,22.54 C34,23.77 34.59009,24.54 35,24.54 C35.40991,24.54 36,23.77 36,22.54 C36,21.32 35.40991,20.54 35,20.54 Z M26,35.54 C25.59009,35.54 25,36.32 25,37.54 C25,38.77 25.59009,39.54 26,39.54 C26.40991,39.54 27,38.77 27,37.54 C27,36.32 26.40991,35.54 26,35.54 Z M22.02,22.83 C21.6982707,23.0083372 21.3556522,23.1460564 21,23.24 L21,47.82 L38.99,37.54 C39.6144781,37.1832299 39.9999171,36.5192064 40,35.8 L40,12.56 L22.02,22.83 Z M26,41.54 C24.32007,41.54 23,39.79 23,37.54 C23,35.3 24.32007,33.54 26,33.54 C27.67993,33.54 29,35.3 29,37.54 C29,39.79 27.67993,41.54 26,41.54 Z M35,26.54 C33.32007,26.54 32,24.79 32,22.54 C32,20.3 33.32007,18.54 35,18.54 C36.67993,18.54 38,20.3 38,22.54 C38,24.79 36.67993,26.54 35,26.54 Z M26,35.54 C25.59009,35.54 25,36.32 25,37.54 C25,38.77 25.59009,39.54 26,39.54 C26.40991,39.54 27,38.77 27,37.54 C27,36.32 26.40991,35.54 26,35.54 Z M35,20.54 C34.59009,20.54 34,21.32 34,22.54 C34,23.77 34.59009,24.54 35,24.54 C35.40991,24.54 36,23.77 36,22.54 C36,21.32 35.40991,20.54 35,20.54 Z M26,35.54 C25.59009,35.54 25,36.32 25,37.54 C25,38.77 25.59009,39.54 26,39.54 C26.40991,39.54 27,38.77 27,37.54 C27,36.32 26.40991,35.54 26,35.54 Z M35,20.54 C34.59009,20.54 34,21.32 34,22.54 C34,23.77 34.59009,24.54 35,24.54 C35.40991,24.54 36,23.77 36,22.54 C36,21.32 35.40991,20.54 35,20.54 Z M26,35.54 C25.59009,35.54 25,36.32 25,37.54 C25,38.77 25.59009,39.54 26,39.54 C26.40991,39.54 27,38.77 27,37.54 C27,36.32 26.40991,35.54 26,35.54 Z M35,20.54 C34.59009,20.54 34,21.32 34,22.54 C34,23.77 34.59009,24.54 35,24.54 C35.40991,24.54 36,23.77 36,22.54 C36,21.32 35.40991,20.54 35,20.54 Z M26,35.54 C25.59009,35.54 25,36.32 25,37.54 C25,38.77 25.59009,39.54 26,39.54 C26.40991,39.54 27,38.77 27,37.54 C27,36.32 26.40991,35.54 26,35.54 Z M35,20.54 C34.59009,20.54 34,21.32 34,22.54 C34,23.77 34.59009,24.54 35,24.54 C35.40991,24.54 36,23.77 36,22.54 C36,21.32 35.40991,20.54 35,20.54 Z M35,20.54 C34.59009,20.54 34,21.32 34,22.54 C34,23.77 34.59009,24.54 35,24.54 C35.40991,24.54 36,23.77 36,22.54 C36,21.32 35.40991,20.54 35,20.54 Z M35,20.54 C34.59009,20.54 34,21.32 34,22.54 C34,23.77 34.59009,24.54 35,24.54 C35.40991,24.54 36,23.77 36,22.54 C36,21.32 35.40991,20.54 35,20.54 Z M26,35.54 C25.59009,35.54 25,36.32 25,37.54 C25,38.77 25.59009,39.54 26,39.54 C26.40991,39.54 27,38.77 27,37.54 C27,36.32 26.40991,35.54 26,35.54 Z M47,33 C46.59009,33 46,33.78 46,35 C46,36.22 46.59009,37 47,37 C47.40991,37 48,36.22 48,35 C48,33.78 47.40991,33 47,33 Z M35,20.54 C34.59009,20.54 34,21.32 34,22.54 C34,23.77 34.59009,24.54 35,24.54 C35.40991,24.54 36,23.77 36,22.54 C36,21.32 35.40991,20.54 35,20.54 Z M35,20.54 C34.59009,20.54 34,21.32 34,22.54 C34,23.77 34.59009,24.54 35,24.54 C35.40991,24.54 36,23.77 36,22.54 C36,21.32 35.40991,20.54 35,20.54 Z M26,35.54 C25.59009,35.54 25,36.32 25,37.54 C25,38.77 25.59009,39.54 26,39.54 C26.40991,39.54 27,38.77 27,37.54 C27,36.32 26.40991,35.54 26,35.54 Z M35,20.54 C34.59009,20.54 34,21.32 34,22.54 C34,23.77 34.59009,24.54 35,24.54 C35.40991,24.54 36,23.77 36,22.54 C36,21.32 35.40991,20.54 35,20.54 Z M26,35.54 C25.59009,35.54 25,36.32 25,37.54 C25,38.77 25.59009,39.54 26,39.54 C26.40991,39.54 27,38.77 27,37.54 C27,36.32 26.40991,35.54 26,35.54 Z M35,20.54 C34.59009,20.54 34,21.32 34,22.54 C34,23.77 34.59009,24.54 35,24.54 C35.40991,24.54 36,23.77 36,22.54 C36,21.32 35.40991,20.54 35,20.54 Z M26,35.54 C25.59009,35.54 25,36.32 25,37.54 C25,38.77 25.59009,39.54 26,39.54 C26.40991,39.54 27,38.77 27,37.54 C27,36.32 26.40991,35.54 26,35.54 Z M35,20.54 C34.59009,20.54 34,21.32 34,22.54 C34,23.77 34.59009,24.54 35,24.54 C35.40991,24.54 36,23.77 36,22.54 C36,21.32 35.40991,20.54 35,20.54 Z M26,35.54 C25.59009,35.54 25,36.32 25,37.54 C25,38.77 25.59009,39.54 26,39.54 C26.40991,39.54 27,38.77 27,37.54 C27,36.32 26.40991,35.54 26,35.54 Z M35,20.54 C34.59009,20.54 34,21.32 34,22.54 C34,23.77 34.59009,24.54 35,24.54 C35.40991,24.54 36,23.77 36,22.54 C36,21.32 35.40991,20.54 35,20.54 Z M26,35.54 C25.59009,35.54 25,36.32 25,37.54 C25,38.77 25.59009,39.54 26,39.54 C26.40991,39.54 27,38.77 27,37.54 C27,36.32 26.40991,35.54 26,35.54 Z M22.02,22.83 C21.6982707,23.0083372 21.3556522,23.1460564 21,23.24 L21,47.82 L38.99,37.54 C39.6144781,37.1832299 39.9999171,36.5192064 40,35.8 L40,12.56 L22.02,22.83 Z M26,41.54 C24.32007,41.54 23,39.79 23,37.54 C23,35.3 24.32007,33.54 26,33.54 C27.67993,33.54 29,35.3 29,37.54 C29,39.79 27.67993,41.54 26,41.54 Z M35,26.54 C33.32007,26.54 32,24.79 32,22.54 C32,20.3 33.32007,18.54 35,18.54 C36.67993,18.54 38,20.3 38,22.54 C38,24.79 36.67993,26.54 35,26.54 Z M26,35.54 C25.59009,35.54 25,36.32 25,37.54 C25,38.77 25.59009,39.54 26,39.54 C26.40991,39.54 27,38.77 27,37.54 C27,36.32 26.40991,35.54 26,35.54 Z M35,20.54 C34.59009,20.54 34,21.32 34,22.54 C34,23.77 34.59009,24.54 35,24.54 C35.40991,24.54 36,23.77 36,22.54 C36,21.32 35.40991,20.54 35,20.54 Z M26,35.54 C25.59009,35.54 25,36.32 25,37.54 C25,38.77 25.59009,39.54 26,39.54 C26.40991,39.54 27,38.77 27,37.54 C27,36.32 26.40991,35.54 26,35.54 Z M35,20.54 C34.59009,20.54 34,21.32 34,22.54 C34,23.77 34.59009,24.54 35,24.54 C35.40991,24.54 36,23.77 36,22.54 C36,21.32 35.40991,20.54 35,20.54 Z M26,35.54 C25.59009,35.54 25,36.32 25,37.54 C25,38.77 25.59009,39.54 26,39.54 C26.40991,39.54 27,38.77 27,37.54 C27,36.32 26.40991,35.54 26,35.54 Z M35,20.54 C34.59009,20.54 34,21.32 34,22.54 C34,23.77 34.59009,24.54 35,24.54 C35.40991,24.54 36,23.77 36,22.54 C36,21.32 35.40991,20.54 35,20.54 Z M26,35.54 C25.59009,35.54 25,36.32 25,37.54 C25,38.77 25.59009,39.54 26,39.54 C26.40991,39.54 27,38.77 27,37.54 C27,36.32 26.40991,35.54 26,35.54 Z M35,20.54 C34.59009,20.54 34,21.32 34,22.54 C34,23.77 34.59009,24.54 35,24.54 C35.40991,24.54 36,23.77 36,22.54 C36,21.32 35.40991,20.54 35,20.54 Z M47,33 C46.59009,33 46,33.78 46,35 C46,36.22 46.59009,37 47,37 C47.40991,37 48,36.22 48,35 C48,33.78 47.40991,33 47,33 Z M35,20.54 C34.59009,20.54 34,21.32 34,22.54 C34,23.77 34.59009,24.54 35,24.54 C35.40991,24.54 36,23.77 36,22.54 C36,21.32 35.40991,20.54 35,20.54 Z M26,35.54 C25.59009,35.54 25,36.32 25,37.54 C25,38.77 25.59009,39.54 26,39.54 C26.40991,39.54 27,38.77 27,37.54 C27,36.32 26.40991,35.54 26,35.54 Z M35,20.54 C34.59009,20.54 34,21.32 34,22.54 C34,23.77 34.59009,24.54 35,24.54 C35.40991,24.54 36,23.77 36,22.54 C36,21.32 35.40991,20.54 35,20.54 Z M26,35.54 C25.59009,35.54 25,36.32 25,37.54 C25,38.77 25.59009,39.54 26,39.54 C26.40991,39.54 27,38.77 27,37.54 C27,36.32 26.40991,35.54 26,35.54 Z M35,20.54 C34.59009,20.54 34,21.32 34,22.54 C34,23.77 34.59009,24.54 35,24.54 C35.40991,24.54 36,23.77 36,22.54 C36,21.32 35.40991,20.54 35,20.54 Z M26,35.54 C25.59009,35.54 25,36.32 25,37.54 C25,38.77 25.59009,39.54 26,39.54 C26.40991,39.54 27,38.77 27,37.54 C27,36.32 26.40991,35.54 26,35.54 Z M35,20.54 C34.59009,20.54 34,21.32 34,22.54 C34,23.77 34.59009,24.54 35,24.54 C35.40991,24.54 36,23.77 36,22.54 C36,21.32 35.40991,20.54 35,20.54 Z M26,35.54 C25.59009,35.54 25,36.32 25,37.54 C25,38.77 25.59009,39.54 26,39.54 C26.40991,39.54 27,38.77 27,37.54 C27,36.32 26.40991,35.54 26,35.54 Z M22.02,22.83 C21.6982707,23.0083372 21.3556522,23.1460564 21,23.24 L21,47.82 L38.99,37.54 C39.6144781,37.1832299 39.9999171,36.5192064 40,35.8 L40,12.56 L22.02,22.83 Z M26,41.54 C24.32007,41.54 23,39.79 23,37.54 C23,35.3 24.32007,33.54 26,33.54 C27.67993,33.54 29,35.3 29,37.54 C29,39.79 27.67993,41.54 26,41.54 Z M35,26.54 C33.32007,26.54 32,24.79 32,22.54 C32,20.3 33.32007,18.54 35,18.54 C36.67993,18.54 38,20.3 38,22.54 C38,24.79 36.67993,26.54 35,26.54 Z M26,35.54 C25.59009,35.54 25,36.32 25,37.54 C25,38.77 25.59009,39.54 26,39.54 C26.40991,39.54 27,38.77 27,37.54 C27,36.32 26.40991,35.54 26,35.54 Z M35,20.54 C34.59009,20.54 34,21.32 34,22.54 C34,23.77 34.59009,24.54 35,24.54 C35.40991,24.54 36,23.77 36,22.54 C36,21.32 35.40991,20.54 35,20.54 Z M26,35.54 C25.59009,35.54 25,36.32 25,37.54 C25,38.77 25.59009,39.54 26,39.54 C26.40991,39.54 27,38.77 27,37.54 C27,36.32 26.40991,35.54 26,35.54 Z M35,20.54 C34.59009,20.54 34,21.32 34,22.54 C34,23.77 34.59009,24.54 35,24.54 C35.40991,24.54 36,23.77 36,22.54 C36,21.32 35.40991,20.54 35,20.54 Z M26,35.54 C25.59009,35.54 25,36.32 25,37.54 C25,38.77 25.59009,39.54 26,39.54 C26.40991,39.54 27,38.77 27,37.54 C27,36.32 26.40991,35.54 26,35.54 Z M35,20.54 C34.59009,20.54 34,21.32 34,22.54 C34,23.77 34.59009,24.54 35,24.54 C35.40991,24.54 36,23.77 36,22.54 C36,21.32 35.40991,20.54 35,20.54 Z M35,20.54 C34.59009,20.54 34,21.32 34,22.54 C34,23.77 34.59009,24.54 35,24.54 C35.40991,24.54 36,23.77 36,22.54 C36,21.32 35.40991,20.54 35,20.54 Z M26,35.54 C25.59009,35.54 25,36.32 25,37.54 C25,38.77 25.59009,39.54 26,39.54 C26.40991,39.54 27,38.77 27,37.54 C27,36.32 26.40991,35.54 26,35.54 Z M47,33 C46.59009,33 46,33.78 46,35 C46,36.22 46.59009,37 47,37 C47.40991,37 48,36.22 48,35 C48,33.78 47.40991,33 47,33 Z M35,20.54 C34.59009,20.54 34,21.32 34,22.54 C34,23.77 34.59009,24.54 35,24.54 C35.40991,24.54 36,23.77 36,22.54 C36,21.32 35.40991,20.54 35,20.54 Z M26,35.54 C25.59009,35.54 25,36.32 25,37.54 C25,38.77 25.59009,39.54 26,39.54 C26.40991,39.54 27,38.77 27,37.54 C27,36.32 26.40991,35.54 26,35.54 Z M35,20.54 C34.59009,20.54 34,21.32 34,22.54 C34,23.77 34.59009,24.54 35,24.54 C35.40991,24.54 36,23.77 36,22.54 C36,21.32 35.40991,20.54 35,20.54 Z M26,35.54 C25.59009,35.54 25,36.32 25,37.54 C25,38.77 25.59009,39.54 26,39.54 C26.40991,39.54 27,38.77 27,37.54 C27,36.32 26.40991,35.54 26,35.54 Z M35,20.54 C34.59009,20.54 34,21.32 34,22.54 C34,23.77 34.59009,24.54 35,24.54 C35.40991,24.54 36,23.77 36,22.54 C36,21.32 35.40991,20.54 35,20.54 Z M26,35.54 C25.59009,35.54 25,36.32 25,37.54 C25,38.77 25.59009,39.54 26,39.54 C26.40991,39.54 27,38.77 27,37.54 C27,36.32 26.40991,35.54 26,35.54 Z M35,20.54 C34.59009,20.54 34,21.32 34,22.54 C34,23.77 34.59009,24.54 35,24.54 C35.40991,24.54 36,23.77 36,22.54 C36,21.32 35.40991,20.54 35,20.54 Z M26,35.54 C25.59009,35.54 25,36.32 25,37.54 C25,38.77 25.59009,39.54 26,39.54 C26.40991,39.54 27,38.77 27,37.54 C27,36.32 26.40991,35.54 26,35.54 Z M22.02,22.83 C21.6982707,23.0083372 21.3556522,23.1460564 21,23.24 L21,47.82 L38.99,37.54 C39.6144781,37.1832299 39.9999171,36.5192064 40,35.8 L40,12.56 L22.02,22.83 Z M26,41.54 C24.32007,41.54 23,39.79 23,37.54 C23,35.3 24.32007,33.54 26,33.54 C27.67993,33.54 29,35.3 29,37.54 C29,39.79 27.67993,41.54 26,41.54 Z M35,26.54 C33.32007,26.54 32,24.79 32,22.54 C32,20.3 33.32007,18.54 35,18.54 C36.67993,18.54 38,20.3 38,22.54 C38,24.79 36.67993,26.54 35,26.54 Z M26,35.54 C25.59009,35.54 25,36.32 25,37.54 C25,38.77 25.59009,39.54 26,39.54 C26.40991,39.54 27,38.77 27,37.54 C27,36.32 26.40991,35.54 26,35.54 Z M35,20.54 C34.59009,20.54 34,21.32 34,22.54 C34,23.77 34.59009,24.54 35,24.54 C35.40991,24.54 36,23.77 36,22.54 C36,21.32 35.40991,20.54 35,20.54 Z M26,35.54 C25.59009,35.54 25,36.32 25,37.54 C25,38.77 25.59009,39.54 26,39.54 C26.40991,39.54 27,38.77 27,37.54 C27,36.32 26.40991,35.54 26,35.54 Z M35,20.54 C34.59009,20.54 34,21.32 34,22.54 C34,23.77 34.59009,24.54 35,24.54 C35.40991,24.54 36,23.77 36,22.54 C36,21.32 35.40991,20.54 35,20.54 Z M26,35.54 C25.59009,35.54 25,36.32 25,37.54 C25,38.77 25.59009,39.54 26,39.54 C26.40991,39.54 27,38.77 27,37.54 C27,36.32 26.40991,35.54 26,35.54 Z M47,33 C46.59009,33 46,33.78 46,35 C46,36.22 46.59009,37 47,37 C47.40991,37 48,36.22 48,35 C48,33.78 47.40991,33 47,33 Z M35,20.54 C34.59009,20.54 34,21.32 34,22.54 C34,23.77 34.59009,24.54 35,24.54 C35.40991,24.54 36,23.77 36,22.54 C36,21.32 35.40991,20.54 35,20.54 Z M26,35.54 C25.59009,35.54 25,36.32 25,37.54 C25,38.77 25.59009,39.54 26,39.54 C26.40991,39.54 27,38.77 27,37.54 C27,36.32 26.40991,35.54 26,35.54 Z M35,20.54 C34.59009,20.54 34,21.32 34,22.54 C34,23.77 34.59009,24.54 35,24.54 C35.40991,24.54 36,23.77 36,22.54 C36,21.32 35.40991,20.54 35,20.54 Z M26,35.54 C25.59009,35.54 25,36.32 25,37.54 C25,38.77 25.59009,39.54 26,39.54 C26.40991,39.54 27,38.77 27,37.54 C27,36.32 26.40991,35.54 26,35.54 Z M22.02,22.83 C21.6982707,23.0083372 21.3556522,23.1460564 21,23.24 L21,47.82 L38.99,37.54 C39.6144781,37.1832299 39.9999171,36.5192064 40,35.8 L40,12.56 L22.02,22.83 Z M26,41.54 C24.32007,41.54 23,39.79 23,37.54 C23,35.3 24.32007,33.54 26,33.54 C27.67993,33.54 29,35.3 29,37.54 C29,39.79 27.67993,41.54 26,41.54 Z M35,26.54 C33.32007,26.54 32,24.79 32,22.54 C32,20.3 33.32007,18.54 35,18.54 C36.67993,18.54 38,20.3 38,22.54 C38,24.79 36.67993,26.54 35,26.54 Z M26,35.54 C25.59009,35.54 25,36.32 25,37.54 C25,38.77 25.59009,39.54 26,39.54 C26.40991,39.54 27,38.77 27,37.54 C27,36.32 26.40991,35.54 26,35.54 Z M35,20.54 C34.59009,20.54 34,21.32 34,22.54 C34,23.77 34.59009,24.54 35,24.54 C35.40991,24.54 36,23.77 36,22.54 C36,21.32 35.40991,20.54 35,20.54 Z M35,20.54 C34.59009,20.54 34,21.32 34,22.54 C34,23.77 34.59009,24.54 35,24.54 C35.40991,24.54 36,23.77 36,22.54 C36,21.32 35.40991,20.54 35,20.54 Z M26,35.54 C25.59009,35.54 25,36.32 25,37.54 C25,38.77 25.59009,39.54 26,39.54 C26.40991,39.54 27,38.77 27,37.54 C27,36.32 26.40991,35.54 26,35.54 Z M47,33 C46.59009,33 46,33.78 46,35 C46,36.22 46.59009,37 47,37 C47.40991,37 48,36.22 48,35 C48,33.78 47.40991,33 47,33 Z M35,20.54 C34.59009,20.54 34,21.32 34,22.54 C34,23.77 34.59009,24.54 35,24.54 C35.40991,24.54 36,23.77 36,22.54 C36,21.32 35.40991,20.54 35,20.54 Z M26,35.54 C25.59009,35.54 25,36.32 25,37.54 C25,38.77 25.59009,39.54 26,39.54 C26.40991,39.54 27,38.77 27,37.54 C27,36.32 26.40991,35.54 26,35.54 Z M35,20.54 C34.59009,20.54 34,21.32 34,22.54 C34,23.77 34.59009,24.54 35,24.54 C35.40991,24.54 36,23.77 36,22.54 C36,21.32 35.40991,20.54 35,20.54 Z M26,35.54 C25.59009,35.54 25,36.32 25,37.54 C25,38.77 25.59009,39.54 26,39.54 C26.40991,39.54 27,38.77 27,37.54 C27,36.32 26.40991,35.54 26,35.54 Z M22.02,22.83 C21.6982707,23.0083372 21.3556522,23.1460564 21,23.24 L21,47.82 L38.99,37.54 C39.6144781,37.1832299 39.9999171,36.5192064 40,35.8 L40,12.56 L22.02,22.83 Z M26,41.54 C24.32007,41.54 23,39.79 23,37.54 C23,35.3 24.32007,33.54 26,33.54 C27.67993,33.54 29,35.3 29,37.54 C29,39.79 27.67993,41.54 26,41.54 Z M35,26.54 C33.32007,26.54 32,24.79 32,22.54 C32,20.3 33.32007,18.54 35,18.54 C36.67993,18.54 38,20.3 38,22.54 C38,24.79 36.67993,26.54 35,26.54 Z M26,35.54 C25.59009,35.54 25,36.32 25,37.54 C25,38.77 25.59009,39.54 26,39.54 C26.40991,39.54 27,38.77 27,37.54 C27,36.32 26.40991,35.54 26,35.54 Z M47,33 C46.59009,33 46,33.78 46,35 C46,36.22 46.59009,37 47,37 C47.40991,37 48,36.22 48,35 C48,33.78 47.40991,33 47,33 Z M21,23.24 L21,47.82 L38.99,37.54 C39.6144781,37.1832299 39.9999171,36.5192064 40,35.8 L40,12.56 L22.02,22.83 C21.6982707,23.0083372 21.3556522,23.1460564 21,23.24 Z M35,18.54 C36.67993,18.54 38,20.3 38,22.54 C38,24.79 36.67993,26.54 35,26.54 C33.32007,26.54 32,24.79 32,22.54 C32,20.3 33.32007,18.54 35,18.54 Z M26,33.54 C27.67993,33.54 29,35.3 29,37.54 C29,39.79 27.67993,41.54 26,41.54 C24.32007,41.54 23,39.79 23,37.54 C23,35.3 24.32007,33.54 26,33.54 Z M47,33 C46.59009,33 46,33.78 46,35 C46,36.22 46.59009,37 47,37 C47.40991,37 48,36.22 48,35 C48,33.78 47.40991,33 47,33 Z M42,25.46 L42,35.8 C42.0016573,37.238903 41.2302862,38.5677998 39.98,39.28 L37,40.98 L37,52.73 L54.99,42.44 C55.6151131,42.0887858 56.0014627,41.4270186 56,40.71 L56,17.47 L42,25.46 Z M47,39 C45.32007,39 44,37.24 44,35 C44,32.76 45.32007,31 47,31 C48.67993,31 50,32.76 50,35 C50,37.24 48.67993,39 47,39 Z M26,35.54 C25.59009,35.54 25,36.32 25,37.54 C25,38.77 25.59009,39.54 26,39.54 C26.40991,39.54 27,38.77 27,37.54 C27,36.32 26.40991,35.54 26,35.54 Z M40,35.8 L40,12.56 L22.02,22.83 C21.6982707,23.0083372 21.3556522,23.1460564 21,23.24 L21,47.82 L38.99,37.54 C39.6144781,37.1832299 39.9999171,36.5192064 40,35.8 Z M26,41.54 C24.32007,41.54 23,39.79 23,37.54 C23,35.3 24.32007,33.54 26,33.54 C27.67993,33.54 29,35.3 29,37.54 C29,39.79 27.67993,41.54 26,41.54 Z M35,26.54 C33.32007,26.54 32,24.79 32,22.54 C32,20.3 33.32007,18.54 35,18.54 C36.67993,18.54 38,20.3 38,22.54 C38,24.79 36.67993,26.54 35,26.54 Z M47,33 C46.59009,33 46,33.78 46,35 C46,36.22 46.59009,37 47,37 C47.40991,37 48,36.22 48,35 C48,33.78 47.40991,33 47,33 Z M26,35.54 C25.59009,35.54 25,36.32 25,37.54 C25,38.77 25.59009,39.54 26,39.54 C26.40991,39.54 27,38.77 27,37.54 C27,36.32 26.40991,35.54 26,35.54 Z M35,20.54 C34.59009,20.54 34,21.32 34,22.54 C34,23.77 34.59009,24.54 35,24.54 C35.40991,24.54 36,23.77 36,22.54 C36,21.32 35.40991,20.54 35,20.54 Z M35,20.54 C34.59009,20.54 34,21.32 34,22.54 C34,23.77 34.59009,24.54 35,24.54 C35.40991,24.54 36,23.77 36,22.54 C36,21.32 35.40991,20.54 35,20.54 Z M26,35.54 C25.59009,35.54 25,36.32 25,37.54 C25,38.77 25.59009,39.54 26,39.54 C26.40991,39.54 27,38.77 27,37.54 C27,36.32 26.40991,35.54 26,35.54 Z M22.02,22.83 C21.6982707,23.0083372 21.3556522,23.1460564 21,23.24 L21,47.82 L38.99,37.54 C39.6144781,37.1832299 39.9999171,36.5192064 40,35.8 L40,12.56 L22.02,22.83 Z M26,41.54 C24.32007,41.54 23,39.79 23,37.54 C23,35.3 24.32007,33.54 26,33.54 C27.67993,33.54 29,35.3 29,37.54 C29,39.79 27.67993,41.54 26,41.54 Z M35,26.54 C33.32007,26.54 32,24.79 32,22.54 C32,20.3 33.32007,18.54 35,18.54 C36.67993,18.54 38,20.3 38,22.54 C38,24.79 36.67993,26.54 35,26.54 Z M47,33 C46.59009,33 46,33.78 46,35 C46,36.22 46.59009,37 47,37 C47.40991,37 48,36.22 48,35 C48,33.78 47.40991,33 47,33 Z M26,35.54 C25.59009,35.54 25,36.32 25,37.54 C25,38.77 25.59009,39.54 26,39.54 C26.40991,39.54 27,38.77 27,37.54 C27,36.32 26.40991,35.54 26,35.54 Z M35,20.54 C34.59009,20.54 34,21.32 34,22.54 C34,23.77 34.59009,24.54 35,24.54 C35.40991,24.54 36,23.77 36,22.54 C36,21.32 35.40991,20.54 35,20.54 Z M26,35.54 C25.59009,35.54 25,36.32 25,37.54 C25,38.77 25.59009,39.54 26,39.54 C26.40991,39.54 27,38.77 27,37.54 C27,36.32 26.40991,35.54 26,35.54 Z M35,20.54 C34.59009,20.54 34,21.32 34,22.54 C34,23.77 34.59009,24.54 35,24.54 C35.40991,24.54 36,23.77 36,22.54 C36,21.32 35.40991,20.54 35,20.54 Z M26,35.54 C25.59009,35.54 25,36.32 25,37.54 C25,38.77 25.59009,39.54 26,39.54 C26.40991,39.54 27,38.77 27,37.54 C27,36.32 26.40991,35.54 26,35.54 Z M22.02,22.83 C21.6982707,23.0083372 21.3556522,23.1460564 21,23.24 L21,47.82 L38.99,37.54 C39.6144781,37.1832299 39.9999171,36.5192064 40,35.8 L40,12.56 L22.02,22.83 Z M26,41.54 C24.32007,41.54 23,39.79 23,37.54 C23,35.3 24.32007,33.54 26,33.54 C27.67993,33.54 29,35.3 29,37.54 C29,39.79 27.67993,41.54 26,41.54 Z M35,26.54 C33.32007,26.54 32,24.79 32,22.54 C32,20.3 33.32007,18.54 35,18.54 C36.67993,18.54 38,20.3 38,22.54 C38,24.79 36.67993,26.54 35,26.54 Z M26,35.54 C25.59009,35.54 25,36.32 25,37.54 C25,38.77 25.59009,39.54 26,39.54 C26.40991,39.54 27,38.77 27,37.54 C27,36.32 26.40991,35.54 26,35.54 Z M35,20.54 C34.59009,20.54 34,21.32 34,22.54 C34,23.77 34.59009,24.54 35,24.54 C35.40991,24.54 36,23.77 36,22.54 C36,21.32 35.40991,20.54 35,20.54 Z M26,35.54 C25.59009,35.54 25,36.32 25,37.54 C25,38.77 25.59009,39.54 26,39.54 C26.40991,39.54 27,38.77 27,37.54 C27,36.32 26.40991,35.54 26,35.54 Z M35,20.54 C34.59009,20.54 34,21.32 34,22.54 C34,23.77 34.59009,24.54 35,24.54 C35.40991,24.54 36,23.77 36,22.54 C36,21.32 35.40991,20.54 35,20.54 Z M47,33 C46.59009,33 46,33.78 46,35 C46,36.22 46.59009,37 47,37 C47.40991,37 48,36.22 48,35 C48,33.78 47.40991,33 47,33 Z M26,35.54 C25.59009,35.54 25,36.32 25,37.54 C25,38.77 25.59009,39.54 26,39.54 C26.40991,39.54 27,38.77 27,37.54 C27,36.32 26.40991,35.54 26,35.54 Z M35,20.54 C34.59009,20.54 34,21.32 34,22.54 C34,23.77 34.59009,24.54 35,24.54 C35.40991,24.54 36,23.77 36,22.54 C36,21.32 35.40991,20.54 35,20.54 Z M35,20.54 C34.59009,20.54 34,21.32 34,22.54 C34,23.77 34.59009,24.54 35,24.54 C35.40991,24.54 36,23.77 36,22.54 C36,21.32 35.40991,20.54 35,20.54 Z M26,35.54 C25.59009,35.54 25,36.32 25,37.54 C25,38.77 25.59009,39.54 26,39.54 C26.40991,39.54 27,38.77 27,37.54 C27,36.32 26.40991,35.54 26,35.54 Z M35,20.54 C34.59009,20.54 34,21.32 34,22.54 C34,23.77 34.59009,24.54 35,24.54 C35.40991,24.54 36,23.77 36,22.54 C36,21.32 35.40991,20.54 35,20.54 Z M26,35.54 C25.59009,35.54 25,36.32 25,37.54 C25,38.77 25.59009,39.54 26,39.54 C26.40991,39.54 27,38.77 27,37.54 C27,36.32 26.40991,35.54 26,35.54 Z M35,20.54 C34.59009,20.54 34,21.32 34,22.54 C34,23.77 34.59009,24.54 35,24.54 C35.40991,24.54 36,23.77 36,22.54 C36,21.32 35.40991,20.54 35,20.54 Z M26,35.54 C25.59009,35.54 25,36.32 25,37.54 C25,38.77 25.59009,39.54 26,39.54 C26.40991,39.54 27,38.77 27,37.54 C27,36.32 26.40991,35.54 26,35.54 Z M22.02,22.83 C21.6982707,23.0083372 21.3556522,23.1460564 21,23.24 L21,47.82 L38.99,37.54 C39.6144781,37.1832299 39.9999171,36.5192064 40,35.8 L40,12.56 L22.02,22.83 Z M26,41.54 C24.32007,41.54 23,39.79 23,37.54 C23,35.3 24.32007,33.54 26,33.54 C27.67993,33.54 29,35.3 29,37.54 C29,39.79 27.67993,41.54 26,41.54 Z M35,26.54 C33.32007,26.54 32,24.79 32,22.54 C32,20.3 33.32007,18.54 35,18.54 C36.67993,18.54 38,20.3 38,22.54 C38,24.79 36.67993,26.54 35,26.54 Z M26,35.54 C25.59009,35.54 25,36.32 25,37.54 C25,38.77 25.59009,39.54 26,39.54 C26.40991,39.54 27,38.77 27,37.54 C27,36.32 26.40991,35.54 26,35.54 Z M35,20.54 C34.59009,20.54 34,21.32 34,22.54 C34,23.77 34.59009,24.54 35,24.54 C35.40991,24.54 36,23.77 36,22.54 C36,21.32 35.40991,20.54 35,20.54 Z M26,35.54 C25.59009,35.54 25,36.32 25,37.54 C25,38.77 25.59009,39.54 26,39.54 C26.40991,39.54 27,38.77 27,37.54 C27,36.32 26.40991,35.54 26,35.54 Z M35,20.54 C34.59009,20.54 34,21.32 34,22.54 C34,23.77 34.59009,24.54 35,24.54 C35.40991,24.54 36,23.77 36,22.54 C36,21.32 35.40991,20.54 35,20.54 Z M47,33 C46.59009,33 46,33.78 46,35 C46,36.22 46.59009,37 47,37 C47.40991,37 48,36.22 48,35 C48,33.78 47.40991,33 47,33 Z M26,35.54 C25.59009,35.54 25,36.32 25,37.54 C25,38.77 25.59009,39.54 26,39.54 C26.40991,39.54 27,38.77 27,37.54 C27,36.32 26.40991,35.54 26,35.54 Z M35,20.54 C34.59009,20.54 34,21.32 34,22.54 C34,23.77 34.59009,24.54 35,24.54 C35.40991,24.54 36,23.77 36,22.54 C36,21.32 35.40991,20.54 35,20.54 Z M26,35.54 C25.59009,35.54 25,36.32 25,37.54 C25,38.77 25.59009,39.54 26,39.54 C26.40991,39.54 27,38.77 27,37.54 C27,36.32 26.40991,35.54 26,35.54 Z M35,20.54 C34.59009,20.54 34,21.32 34,22.54 C34,23.77 34.59009,24.54 35,24.54 C35.40991,24.54 36,23.77 36,22.54 C36,21.32 35.40991,20.54 35,20.54 Z M26,35.54 C25.59009,35.54 25,36.32 25,37.54 C25,38.77 25.59009,39.54 26,39.54 C26.40991,39.54 27,38.77 27,37.54 C27,36.32 26.40991,35.54 26,35.54 Z M35,20.54 C34.59009,20.54 34,21.32 34,22.54 C34,23.77 34.59009,24.54 35,24.54 C35.40991,24.54 36,23.77 36,22.54 C36,21.32 35.40991,20.54 35,20.54 Z M26,35.54 C25.59009,35.54 25,36.32 25,37.54 C25,38.77 25.59009,39.54 26,39.54 C26.40991,39.54 27,38.77 27,37.54 C27,36.32 26.40991,35.54 26,35.54 Z M35,20.54 C34.59009,20.54 34,21.32 34,22.54 C34,23.77 34.59009,24.54 35,24.54 C35.40991,24.54 36,23.77 36,22.54 C36,21.32 35.40991,20.54 35,20.54 Z M26,35.54 C25.59009,35.54 25,36.32 25,37.54 C25,38.77 25.59009,39.54 26,39.54 C26.40991,39.54 27,38.77 27,37.54 C27,36.32 26.40991,35.54 26,35.54 Z M22.02,22.83 C21.6982707,23.0083372 21.3556522,23.1460564 21,23.24 L21,47.82 L38.99,37.54 C39.6144781,37.1832299 39.9999171,36.5192064 40,35.8 L40,12.56 L22.02,22.83 Z M26,41.54 C24.32007,41.54 23,39.79 23,37.54 C23,35.3 24.32007,33.54 26,33.54 C27.67993,33.54 29,35.3 29,37.54 C29,39.79 27.67993,41.54 26,41.54 Z M35,26.54 C33.32007,26.54 32,24.79 32,22.54 C32,20.3 33.32007,18.54 35,18.54 C36.67993,18.54 38,20.3 38,22.54 C38,24.79 36.67993,26.54 35,26.54 Z M26,35.54 C25.59009,35.54 25,36.32 25,37.54 C25,38.77 25.59009,39.54 26,39.54 C26.40991,39.54 27,38.77 27,37.54 C27,36.32 26.40991,35.54 26,35.54 Z M35,20.54 C34.59009,20.54 34,21.32 34,22.54 C34,23.77 34.59009,24.54 35,24.54 C35.40991,24.54 36,23.77 36,22.54 C36,21.32 35.40991,20.54 35,20.54 Z M26,35.54 C25.59009,35.54 25,36.32 25,37.54 C25,38.77 25.59009,39.54 26,39.54 C26.40991,39.54 27,38.77 27,37.54 C27,36.32 26.40991,35.54 26,35.54 Z M35,20.54 C34.59009,20.54 34,21.32 34,22.54 C34,23.77 34.59009,24.54 35,24.54 C35.40991,24.54 36,23.77 36,22.54 C36,21.32 35.40991,20.54 35,20.54 Z M26,35.54 C25.59009,35.54 25,36.32 25,37.54 C25,38.77 25.59009,39.54 26,39.54 C26.40991,39.54 27,38.77 27,37.54 C27,36.32 26.40991,35.54 26,35.54 Z M35,20.54 C34.59009,20.54 34,21.32 34,22.54 C34,23.77 34.59009,24.54 35,24.54 C35.40991,24.54 36,23.77 36,22.54 C36,21.32 35.40991,20.54 35,20.54 Z M26,35.54 C25.59009,35.54 25,36.32 25,37.54 C25,38.77 25.59009,39.54 26,39.54 C26.40991,39.54 27,38.77 27,37.54 C27,36.32 26.40991,35.54 26,35.54 Z M35,20.54 C34.59009,20.54 34,21.32 34,22.54 C34,23.77 34.59009,24.54 35,24.54 C35.40991,24.54 36,23.77 36,22.54 C36,21.32 35.40991,20.54 35,20.54 Z M47,33 C46.59009,33 46,33.78 46,35 C46,36.22 46.59009,37 47,37 C47.40991,37 48,36.22 48,35 C48,33.78 47.40991,33 47,33 Z M26,35.54 C25.59009,35.54 25,36.32 25,37.54 C25,38.77 25.59009,39.54 26,39.54 C26.40991,39.54 27,38.77 27,37.54 C27,36.32 26.40991,35.54 26,35.54 Z M35,20.54 C34.59009,20.54 34,21.32 34,22.54 C34,23.77 34.59009,24.54 35,24.54 C35.40991,24.54 36,23.77 36,22.54 C36,21.32 35.40991,20.54 35,20.54 Z M35,20.54 C34.59009,20.54 34,21.32 34,22.54 C34,23.77 34.59009,24.54 35,24.54 C35.40991,24.54 36,23.77 36,22.54 C36,21.32 35.40991,20.54 35,20.54 Z M26,35.54 C25.59009,35.54 25,36.32 25,37.54 C25,38.77 25.59009,39.54 26,39.54 C26.40991,39.54 27,38.77 27,37.54 C27,36.32 26.40991,35.54 26,35.54 Z M35,20.54 C34.59009,20.54 34,21.32 34,22.54 C34,23.77 34.59009,24.54 35,24.54 C35.40991,24.54 36,23.77 36,22.54 C36,21.32 35.40991,20.54 35,20.54 Z M26,35.54 C25.59009,35.54 25,36.32 25,37.54 C25,38.77 25.59009,39.54 26,39.54 C26.40991,39.54 27,38.77 27,37.54 C27,36.32 26.40991,35.54 26,35.54 Z M35,20.54 C34.59009,20.54 34,21.32 34,22.54 C34,23.77 34.59009,24.54 35,24.54 C35.40991,24.54 36,23.77 36,22.54 C36,21.32 35.40991,20.54 35,20.54 Z M26,35.54 C25.59009,35.54 25,36.32 25,37.54 C25,38.77 25.59009,39.54 26,39.54 C26.40991,39.54 27,38.77 27,37.54 C27,36.32 26.40991,35.54 26,35.54 Z M35,20.54 C34.59009,20.54 34,21.32 34,22.54 C34,23.77 34.59009,24.54 35,24.54 C35.40991,24.54 36,23.77 36,22.54 C36,21.32 35.40991,20.54 35,20.54 Z M26,35.54 C25.59009,35.54 25,36.32 25,37.54 C25,38.77 25.59009,39.54 26,39.54 C26.40991,39.54 27,38.77 27,37.54 C27,36.32 26.40991,35.54 26,35.54 Z M35,20.54 C34.59009,20.54 34,21.32 34,22.54 C34,23.77 34.59009,24.54 35,24.54 C35.40991,24.54 36,23.77 36,22.54 C36,21.32 35.40991,20.54 35,20.54 Z M26,35.54 C25.59009,35.54 25,36.32 25,37.54 C25,38.77 25.59009,39.54 26,39.54 C26.40991,39.54 27,38.77 27,37.54 C27,36.32 26.40991,35.54 26,35.54 Z M22.02,22.83 C21.6982707,23.0083372 21.3556522,23.1460564 21,23.24 L21,47.82 L38.99,37.54 C39.6144781,37.1832299 39.9999171,36.5192064 40,35.8 L40,12.56 L22.02,22.83 Z M26,41.54 C24.32007,41.54 23,39.79 23,37.54 C23,35.3 24.32007,33.54 26,33.54 C27.67993,33.54 29,35.3 29,37.54 C29,39.79 27.67993,41.54 26,41.54 Z M35,26.54 C33.32007,26.54 32,24.79 32,22.54 C32,20.3 33.32007,18.54 35,18.54 C36.67993,18.54 38,20.3 38,22.54 C38,24.79 36.67993,26.54 35,26.54 Z M26,35.54 C25.59009,35.54 25,36.32 25,37.54 C25,38.77 25.59009,39.54 26,39.54 C26.40991,39.54 27,38.77 27,37.54 C27,36.32 26.40991,35.54 26,35.54 Z M35,20.54 C34.59009,20.54 34,21.32 34,22.54 C34,23.77 34.59009,24.54 35,24.54 C35.40991,24.54 36,23.77 36,22.54 C36,21.32 35.40991,20.54 35,20.54 Z M26,35.54 C25.59009,35.54 25,36.32 25,37.54 C25,38.77 25.59009,39.54 26,39.54 C26.40991,39.54 27,38.77 27,37.54 C27,36.32 26.40991,35.54 26,35.54 Z M35,20.54 C34.59009,20.54 34,21.32 34,22.54 C34,23.77 34.59009,24.54 35,24.54 C35.40991,24.54 36,23.77 36,22.54 C36,21.32 35.40991,20.54 35,20.54 Z M26,35.54 C25.59009,35.54 25,36.32 25,37.54 C25,38.77 25.59009,39.54 26,39.54 C26.40991,39.54 27,38.77 27,37.54 C27,36.32 26.40991,35.54 26,35.54 Z M35,20.54 C34.59009,20.54 34,21.32 34,22.54 C34,23.77 34.59009,24.54 35,24.54 C35.40991,24.54 36,23.77 36,22.54 C36,21.32 35.40991,20.54 35,20.54 Z M26,35.54 C25.59009,35.54 25,36.32 25,37.54 C25,38.77 25.59009,39.54 26,39.54 C26.40991,39.54 27,38.77 27,37.54 C27,36.32 26.40991,35.54 26,35.54 Z M35,20.54 C34.59009,20.54 34,21.32 34,22.54 C34,23.77 34.59009,24.54 35,24.54 C35.40991,24.54 36,23.77 36,22.54 C36,21.32 35.40991,20.54 35,20.54 Z M47,33 C46.59009,33 46,33.78 46,35 C46,36.22 46.59009,37 47,37 C47.40991,37 48,36.22 48,35 C48,33.78 47.40991,33 47,33 Z M35,20.54 C34.59009,20.54 34,21.32 34,22.54 C34,23.77 34.59009,24.54 35,24.54 C35.40991,24.54 36,23.77 36,22.54 C36,21.32 35.40991,20.54 35,20.54 Z M35,20.54 C34.59009,20.54 34,21.32 34,22.54 C34,23.77 34.59009,24.54 35,24.54 C35.40991,24.54 36,23.77 36,22.54 C36,21.32 35.40991,20.54 35,20.54 Z M26,35.54 C25.59009,35.54 25,36.32 25,37.54 C25,38.77 25.59009,39.54 26,39.54 C26.40991,39.54 27,38.77 27,37.54 C27,36.32 26.40991,35.54 26,35.54 Z M35,20.54 C34.59009,20.54 34,21.32 34,22.54 C34,23.77 34.59009,24.54 35,24.54 C35.40991,24.54 36,23.77 36,22.54 C36,21.32 35.40991,20.54 35,20.54 Z M26,35.54 C25.59009,35.54 25,36.32 25,37.54 C25,38.77 25.59009,39.54 26,39.54 C26.40991,39.54 27,38.77 27,37.54 C27,36.32 26.40991,35.54 26,35.54 Z M35,20.54 C34.59009,20.54 34,21.32 34,22.54 C34,23.77 34.59009,24.54 35,24.54 C35.40991,24.54 36,23.77 36,22.54 C36,21.32 35.40991,20.54 35,20.54 Z M26,35.54 C25.59009,35.54 25,36.32 25,37.54 C25,38.77 25.59009,39.54 26,39.54 C26.40991,39.54 27,38.77 27,37.54 C27,36.32 26.40991,35.54 26,35.54 Z M35,20.54 C34.59009,20.54 34,21.32 34,22.54 C34,23.77 34.59009,24.54 35,24.54 C35.40991,24.54 36,23.77 36,22.54 C36,21.32 35.40991,20.54 35,20.54 Z M26,35.54 C25.59009,35.54 25,36.32 25,37.54 C25,38.77 25.59009,39.54 26,39.54 C26.40991,39.54 27,38.77 27,37.54 C27,36.32 26.40991,35.54 26,35.54 Z M35,20.54 C34.59009,20.54 34,21.32 34,22.54 C34,23.77 34.59009,24.54 35,24.54 C35.40991,24.54 36,23.77 36,22.54 C36,21.32 35.40991,20.54 35,20.54 Z M26,35.54 C25.59009,35.54 25,36.32 25,37.54 C25,38.77 25.59009,39.54 26,39.54 C26.40991,39.54 27,38.77 27,37.54 C27,36.32 26.40991,35.54 26,35.54 Z M22.02,22.83 C21.6982707,23.0083372 21.3556522,23.1460564 21,23.24 L21,47.82 L38.99,37.54 C39.6144781,37.1832299 39.9999171,36.5192064 40,35.8 L40,12.56 L22.02,22.83 Z M26,41.54 C24.32007,41.54 23,39.79 23,37.54 C23,35.3 24.32007,33.54 26,33.54 C27.67993,33.54 29,35.3 29,37.54 C29,39.79 27.67993,41.54 26,41.54 Z M35,26.54 C33.32007,26.54 32,24.79 32,22.54 C32,20.3 33.32007,18.54 35,18.54 C36.67993,18.54 38,20.3 38,22.54 C38,24.79 36.67993,26.54 35,26.54 Z M26,35.54 C25.59009,35.54 25,36.32 25,37.54 C25,38.77 25.59009,39.54 26,39.54 C26.40991,39.54 27,38.77 27,37.54 C27,36.32 26.40991,35.54 26,35.54 Z M35,20.54 C34.59009,20.54 34,21.32 34,22.54 C34,23.77 34.59009,24.54 35,24.54 C35.40991,24.54 36,23.77 36,22.54 C36,21.32 35.40991,20.54 35,20.54 Z M26,35.54 C25.59009,35.54 25,36.32 25,37.54 C25,38.77 25.59009,39.54 26,39.54 C26.40991,39.54 27,38.77 27,37.54 C27,36.32 26.40991,35.54 26,35.54 Z M35,20.54 C34.59009,20.54 34,21.32 34,22.54 C34,23.77 34.59009,24.54 35,24.54 C35.40991,24.54 36,23.77 36,22.54 C36,21.32 35.40991,20.54 35,20.54 Z M26,35.54 C25.59009,35.54 25,36.32 25,37.54 C25,38.77 25.59009,39.54 26,39.54 C26.40991,39.54 27,38.77 27,37.54 C27,36.32 26.40991,35.54 26,35.54 Z M35,20.54 C34.59009,20.54 34,21.32 34,22.54 C34,23.77 34.59009,24.54 35,24.54 C35.40991,24.54 36,23.77 36,22.54 C36,21.32 35.40991,20.54 35,20.54 Z M26,35.54 C25.59009,35.54 25,36.32 25,37.54 C25,38.77 25.59009,39.54 26,39.54 C26.40991,39.54 27,38.77 27,37.54 C27,36.32 26.40991,35.54 26,35.54 Z M35,20.54 C34.59009,20.54 34,21.32 34,22.54 C34,23.77 34.59009,24.54 35,24.54 C35.40991,24.54 36,23.77 36,22.54 C36,21.32 35.40991,20.54 35,20.54 Z M35,20.54 C34.59009,20.54 34,21.32 34,22.54 C34,23.77 34.59009,24.54 35,24.54 C35.40991,24.54 36,23.77 36,22.54 C36,21.32 35.40991,20.54 35,20.54 Z M35,20.54 C34.59009,20.54 34,21.32 34,22.54 C34,23.77 34.59009,24.54 35,24.54 C35.40991,24.54 36,23.77 36,22.54 C36,21.32 35.40991,20.54 35,20.54 Z M47,33 C46.59009,33 46,33.78 46,35 C46,36.22 46.59009,37 47,37 C47.40991,37 48,36.22 48,35 C48,33.78 47.40991,33 47,33 Z M35,20.54 C34.59009,20.54 34,21.32 34,22.54 C34,23.77 34.59009,24.54 35,24.54 C35.40991,24.54 36,23.77 36,22.54 C36,21.32 35.40991,20.54 35,20.54 Z M35,20.54 C34.59009,20.54 34,21.32 34,22.54 C34,23.77 34.59009,24.54 35,24.54 C35.40991,24.54 36,23.77 36,22.54 C36,21.32 35.40991,20.54 35,20.54 Z M26,35.54 C25.59009,35.54 25,36.32 25,37.54 C25,38.77 25.59009,39.54 26,39.54 C26.40991,39.54 27,38.77 27,37.54 C27,36.32 26.40991,35.54 26,35.54 Z M35,20.54 C34.59009,20.54 34,21.32 34,22.54 C34,23.77 34.59009,24.54 35,24.54 C35.40991,24.54 36,23.77 36,22.54 C36,21.32 35.40991,20.54 35,20.54 Z M26,35.54 C25.59009,35.54 25,36.32 25,37.54 C25,38.77 25.59009,39.54 26,39.54 C26.40991,39.54 27,38.77 27,37.54 C27,36.32 26.40991,35.54 26,35.54 Z M35,20.54 C34.59009,20.54 34,21.32 34,22.54 C34,23.77 34.59009,24.54 35,24.54 C35.40991,24.54 36,23.77 36,22.54 C36,21.32 35.40991,20.54 35,20.54 Z M26,35.54 C25.59009,35.54 25,36.32 25,37.54 C25,38.77 25.59009,39.54 26,39.54 C26.40991,39.54 27,38.77 27,37.54 C27,36.32 26.40991,35.54 26,35.54 Z M35,20.54 C34.59009,20.54 34,21.32 34,22.54 C34,23.77 34.59009,24.54 35,24.54 C35.40991,24.54 36,23.77 36,22.54 C36,21.32 35.40991,20.54 35,20.54 Z M26,35.54 C25.59009,35.54 25,36.32 25,37.54 C25,38.77 25.59009,39.54 26,39.54 C26.40991,39.54 27,38.77 27,37.54 C27,36.32 26.40991,35.54 26,35.54 Z M35,20.54 C34.59009,20.54 34,21.32 34,22.54 C34,23.77 34.59009,24.54 35,24.54 C35.40991,24.54 36,23.77 36,22.54 C36,21.32 35.40991,20.54 35,20.54 Z M26,35.54 C25.59009,35.54 25,36.32 25,37.54 C25,38.77 25.59009,39.54 26,39.54 C26.40991,39.54 27,38.77 27,37.54 C27,36.32 26.40991,35.54 26,35.54 Z M22.02,22.83 C21.6982707,23.0083372 21.3556522,23.1460564 21,23.24 L21,47.82 L38.99,37.54 C39.6144781,37.1832299 39.9999171,36.5192064 40,35.8 L40,12.56 L22.02,22.83 Z M26,41.54 C24.32007,41.54 23,39.79 23,37.54 C23,35.3 24.32007,33.54 26,33.54 C27.67993,33.54 29,35.3 29,37.54 C29,39.79 27.67993,41.54 26,41.54 Z M35,26.54 C33.32007,26.54 32,24.79 32,22.54 C32,20.3 33.32007,18.54 35,18.54 C36.67993,18.54 38,20.3 38,22.54 C38,24.79 36.67993,26.54 35,26.54 Z M26,35.54 C25.59009,35.54 25,36.32 25,37.54 C25,38.77 25.59009,39.54 26,39.54 C26.40991,39.54 27,38.77 27,37.54 C27,36.32 26.40991,35.54 26,35.54 Z M35,20.54 C34.59009,20.54 34,21.32 34,22.54 C34,23.77 34.59009,24.54 35,24.54 C35.40991,24.54 36,23.77 36,22.54 C36,21.32 35.40991,20.54 35,20.54 Z M26,35.54 C25.59009,35.54 25,36.32 25,37.54 C25,38.77 25.59009,39.54 26,39.54 C26.40991,39.54 27,38.77 27,37.54 C27,36.32 26.40991,35.54 26,35.54 Z M35,20.54 C34.59009,20.54 34,21.32 34,22.54 C34,23.77 34.59009,24.54 35,24.54 C35.40991,24.54 36,23.77 36,22.54 C36,21.32 35.40991,20.54 35,20.54 Z M26,35.54 C25.59009,35.54 25,36.32 25,37.54 C25,38.77 25.59009,39.54 26,39.54 C26.40991,39.54 27,38.77 27,37.54 C27,36.32 26.40991,35.54 26,35.54 Z M35,20.54 C34.59009,20.54 34,21.32 34,22.54 C34,23.77 34.59009,24.54 35,24.54 C35.40991,24.54 36,23.77 36,22.54 C36,21.32 35.40991,20.54 35,20.54 Z M26,35.54 C25.59009,35.54 25,36.32 25,37.54 C25,38.77 25.59009,39.54 26,39.54 C26.40991,39.54 27,38.77 27,37.54 C27,36.32 26.40991,35.54 26,35.54 Z M35,20.54 C34.59009,20.54 34,21.32 34,22.54 C34,23.77 34.59009,24.54 35,24.54 C35.40991,24.54 36,23.77 36,22.54 C36,21.32 35.40991,20.54 35,20.54 Z M35,20.54 C34.59009,20.54 34,21.32 34,22.54 C34,23.77 34.59009,24.54 35,24.54 C35.40991,24.54 36,23.77 36,22.54 C36,21.32 35.40991,20.54 35,20.54 Z M35,20.54 C34.59009,20.54 34,21.32 34,22.54 C34,23.77 34.59009,24.54 35,24.54 C35.40991,24.54 36,23.77 36,22.54 C36,21.32 35.40991,20.54 35,20.54 Z M26,35.54 C25.59009,35.54 25,36.32 25,37.54 C25,38.77 25.59009,39.54 26,39.54 C26.40991,39.54 27,38.77 27,37.54 C27,36.32 26.40991,35.54 26,35.54 Z"></path></g></g></svg>